<?xml version="1.0" encoding="UTF-8" standalone="no"?>
<!-- Created with Inkscape (http://www.inkscape.org/) -->

<svg
   version="1.1"
   id="svg9"
   width="1588"
   height="1122.6667"
   viewBox="0 0 1588 1122.6667"
   sodipodi:docname="v1.svg"
   inkscape:version="1.2.2 (732a01da63, 2022-12-09)"
   xmlns:inkscape="http://www.inkscape.org/namespaces/inkscape"
   xmlns:sodipodi="http://sodipodi.sourceforge.net/DTD/sodipodi-0.dtd"
   xmlns="http://www.w3.org/2000/svg"
   xmlns:svg="http://www.w3.org/2000/svg">
  <defs
     id="defs13">
    <clipPath
       clipPathUnits="userSpaceOnUse"
       id="clipPath25">
      <path
         d="m 137,10391 h 4557 v 3612 H 137 v -3612"
         id="path23" />
    </clipPath>
  </defs>
  <sodipodi:namedview
     id="namedview11"
     pagecolor="#ffffff"
     bordercolor="#000000"
     borderopacity="0.25"
     inkscape:showpageshadow="2"
     inkscape:pageopacity="0.0"
     inkscape:pagecheckerboard="0"
     inkscape:deskcolor="#d1d1d1"
     showgrid="false"
     inkscape:zoom="2.8284271"
     inkscape:cx="134.35029"
     inkscape:cy="245.71961"
     inkscape:window-width="2560"
     inkscape:window-height="1494"
     inkscape:window-x="-11"
     inkscape:window-y="-11"
     inkscape:window-maximized="1"
     inkscape:current-layer="g17">
    <inkscape:page
       x="0"
       y="0"
       id="page15"
       width="1588"
       height="1122.6667" />
  </sodipodi:namedview>
  <g
     id="g17"
     inkscape:groupmode="layer"
     inkscape:label="Page 1"
     transform="matrix(0.08,0,0,-0.08,0,1122.6667)">
    <g
       id="g19"
       transform="translate(494.61754,-523.37437)"
       style="stroke:#ff0000;stroke-opacity:1;stroke-width:0.04724413;stroke-dasharray:none">
      <g
         id="g21"
         clip-path="url(#clipPath25)"
         style="stroke:#ff0000;stroke-opacity:1;stroke-width:0.04724413;stroke-dasharray:none">
        <g
           id="g27"
           transform="rotate(90,-5836,7873.5)"
           style="stroke:#ff0000;stroke-opacity:1;stroke-width:0.04724413;stroke-dasharray:none">
          <path
             d="M 0,-82.5 C 45.5635,-82.5 82.5,-45.5635 82.5,0 82.5,45.5635 45.5635,82.5 0,82.5 -45.5635,82.5 -82.5,45.5635 -82.5,0 -82.5,-45.5635 -45.5635,-82.5 0,-82.5"
             style="fill:none;stroke:#ff0000;stroke-width:0.04724413;stroke-linecap:round;stroke-linejoin:round;stroke-miterlimit:10;stroke-dasharray:none;stroke-opacity:1"
             id="path29" />
        </g>
        <g
           id="g31"
           transform="rotate(90,-5457.5,8252)"
           style="stroke:#ff0000;stroke-opacity:1;stroke-width:0.04724413;stroke-dasharray:none">
          <path
             d="M 0,-82.5 C 45.5635,-82.5 82.5,-45.5635 82.5,0 82.5,45.5635 45.5635,82.5 0,82.5 -45.5635,82.5 -82.5,45.5635 -82.5,0 -82.5,-45.5635 -45.5635,-82.5 0,-82.5"
             style="fill:none;stroke:#ff0000;stroke-width:0.04724413;stroke-linecap:round;stroke-linejoin:round;stroke-miterlimit:10;stroke-dasharray:none;stroke-opacity:1"
             id="path33" />
        </g>
        <g
           id="g35"
           transform="rotate(90,-6107.5,7035)"
           style="stroke:#ff0000;stroke-opacity:1;stroke-width:0.04724413;stroke-dasharray:none">
          <path
             d="M 0,-118.5 C 65.44575,-118.5 118.5,-65.44575 118.5,0 118.5,65.44575 65.44575,118.5 0,118.5 -65.44575,118.5 -118.5,65.44575 -118.5,0 -118.5,-65.44575 -65.44575,-118.5 0,-118.5"
             style="fill:none;stroke:#ff0000;stroke-width:0.04724413;stroke-linecap:round;stroke-linejoin:round;stroke-miterlimit:10;stroke-dasharray:none;stroke-opacity:1"
             id="path37" />
        </g>
        <g
           id="g39"
           transform="rotate(90,-4619,8523.5)"
           style="stroke:#ff0000;stroke-opacity:1;stroke-width:0.04724413;stroke-dasharray:none">
          <path
             d="M 0,-118.5 C 65.44575,-118.5 118.5,-65.44575 118.5,0 118.5,65.44575 65.44575,118.5 0,118.5 -65.44575,118.5 -118.5,65.44575 -118.5,0 -118.5,-65.44575 -65.44575,-118.5 0,-118.5"
             style="fill:none;stroke:#ff0000;stroke-width:0.04724413;stroke-linecap:round;stroke-linejoin:round;stroke-miterlimit:10;stroke-dasharray:none;stroke-opacity:1"
             id="path41" />
        </g>
        <path
           d="M 4542,13851 H 289 v -3308 h 4253"
           style="fill:none;stroke:#ff0000;stroke-width:0.04724413;stroke-linecap:round;stroke-linejoin:round;stroke-miterlimit:10;stroke-dasharray:none;stroke-opacity:1"
           id="path43" />
        <path
           d="m 643,11377 h 568"
           style="fill:none;stroke:#ff0000;stroke-width:0.04724413;stroke-linecap:round;stroke-linejoin:round;stroke-miterlimit:10;stroke-dasharray:none;stroke-opacity:1"
           id="path45" />
        <path
           d="m 643.5,11378 c -65.44574,0 -118.5,-53.055 -118.5,-118.5 0,-65.445 53.05426,-118.5 118.5,-118.5"
           style="fill:none;stroke:#ff0000;stroke-width:0.04724413;stroke-linecap:round;stroke-linejoin:round;stroke-miterlimit:10;stroke-dasharray:none;stroke-opacity:1"
           id="path47" />
        <path
           d="M 1211,11141 H 643"
           style="fill:none;stroke:#ff0000;stroke-width:0.04724413;stroke-linecap:round;stroke-linejoin:round;stroke-miterlimit:10;stroke-dasharray:none;stroke-opacity:1"
           id="path49" />
        <g
           id="g51"
           transform="rotate(180,605.75,5629.75)"
           style="stroke:#ff0000;stroke-opacity:1;stroke-width:0.04724413;stroke-dasharray:none">
          <path
             d="M 0,118.5 C -65.44575,118.5 -118.5,65.44575 -118.5,0 -118.5,-65.44575 -65.44575,-118.5 0,-118.5"
             style="fill:none;stroke:#ff0000;stroke-width:0.04724413;stroke-linecap:round;stroke-linejoin:round;stroke-miterlimit:10;stroke-dasharray:none;stroke-opacity:1"
             id="path53" />
        </g>
        <g
           id="g55"
           transform="rotate(180,2094.25,5913.25)"
           style="stroke:#ff0000;stroke-opacity:1;stroke-width:0.04724413;stroke-dasharray:none">
          <path
             d="M 0,118.5 C -65.44575,118.5 -118.5,65.44575 -118.5,0 -118.5,-65.44575 -65.44575,-118.5 0,-118.5"
             style="fill:none;stroke:#ff0000;stroke-width:0.04724413;stroke-linecap:round;stroke-linejoin:round;stroke-miterlimit:10;stroke-dasharray:none;stroke-opacity:1"
             id="path57" />
        </g>
        <path
           d="m 3620,11944 h 568"
           style="fill:none;stroke:#ff0000;stroke-width:0.04724413;stroke-linecap:round;stroke-linejoin:round;stroke-miterlimit:10;stroke-dasharray:none;stroke-opacity:1"
           id="path59" />
        <path
           d="m 3620.5,11945 c -65.4458,0 -118.5,-53.055 -118.5,-118.5 0,-65.445 53.0542,-118.5 118.5,-118.5"
           style="fill:none;stroke:#ff0000;stroke-width:0.04724413;stroke-linecap:round;stroke-linejoin:round;stroke-miterlimit:10;stroke-dasharray:none;stroke-opacity:1"
           id="path61" />
        <path
           d="M 4188,11708 H 3620"
           style="fill:none;stroke:#ff0000;stroke-width:0.04724413;stroke-linecap:round;stroke-linejoin:round;stroke-miterlimit:10;stroke-dasharray:none;stroke-opacity:1"
           id="path63" />
        <path
           d="M 1211,11708 H 643"
           style="fill:none;stroke:#ff0000;stroke-width:0.04724413;stroke-linecap:round;stroke-linejoin:round;stroke-miterlimit:10;stroke-dasharray:none;stroke-opacity:1"
           id="path65" />
        <g
           id="g67"
           transform="rotate(180,605.75,5913.25)"
           style="stroke:#ff0000;stroke-opacity:1;stroke-width:0.04724413;stroke-dasharray:none">
          <path
             d="M 0,118.5 C -65.44575,118.5 -118.5,65.44575 -118.5,0 -118.5,-65.44575 -65.44575,-118.5 0,-118.5"
             style="fill:none;stroke:#ff0000;stroke-width:0.04724413;stroke-linecap:round;stroke-linejoin:round;stroke-miterlimit:10;stroke-dasharray:none;stroke-opacity:1"
             id="path69" />
        </g>
        <path
           d="m 643,11944 h 568"
           style="fill:none;stroke:#ff0000;stroke-width:0.04724413;stroke-linecap:round;stroke-linejoin:round;stroke-miterlimit:10;stroke-dasharray:none;stroke-opacity:1"
           id="path71" />
        <path
           d="m 643.5,11945 c -65.44574,0 -118.5,-53.055 -118.5,-118.5 0,-65.445 53.05426,-118.5 118.5,-118.5"
           style="fill:none;stroke:#ff0000;stroke-width:0.04724413;stroke-linecap:round;stroke-linejoin:round;stroke-miterlimit:10;stroke-dasharray:none;stroke-opacity:1"
           id="path73" />
        <path
           d="M 4188,11141 H 3620"
           style="fill:none;stroke:#ff0000;stroke-width:0.04724413;stroke-linecap:round;stroke-linejoin:round;stroke-miterlimit:10;stroke-dasharray:none;stroke-opacity:1"
           id="path75" />
        <g
           id="g77"
           transform="rotate(180,2094.25,5629.75)"
           style="stroke:#ff0000;stroke-opacity:1;stroke-width:0.04724413;stroke-dasharray:none">
          <path
             d="M 0,118.5 C -65.44575,118.5 -118.5,65.44575 -118.5,0 -118.5,-65.44575 -65.44575,-118.5 0,-118.5"
             style="fill:none;stroke:#ff0000;stroke-width:0.04724413;stroke-linecap:round;stroke-linejoin:round;stroke-miterlimit:10;stroke-dasharray:none;stroke-opacity:1"
             id="path79" />
        </g>
        <path
           d="m 3620,11377 h 568"
           style="fill:none;stroke:#ff0000;stroke-width:0.04724413;stroke-linecap:round;stroke-linejoin:round;stroke-miterlimit:10;stroke-dasharray:none;stroke-opacity:1"
           id="path81" />
        <path
           d="m 3620.5,11378 c -65.4458,0 -118.5,-53.055 -118.5,-118.5 0,-65.445 53.0542,-118.5 118.5,-118.5"
           style="fill:none;stroke:#ff0000;stroke-width:0.04724413;stroke-linecap:round;stroke-linejoin:round;stroke-miterlimit:10;stroke-dasharray:none;stroke-opacity:1"
           id="path83" />
        <path
           d="m 4542,10543 v 3308"
           style="fill:none;stroke:#ff0000;stroke-width:0.04724413;stroke-linecap:round;stroke-linejoin:round;stroke-miterlimit:10;stroke-dasharray:none;stroke-opacity:1"
           id="path85" />
      </g>
    </g>
  </g>
</svg>
